# xmcd
#
# Track frame offsets:
#	150
#	18052
#	37387
#	72128
#	117307
#	131357
#	145001
#	181891
#	238701
#	264897
#	288730
#	304757
#
# Disc length: 4361
#
# Revision: 1
# Processed by: cddbd v1.5.1PL0 Copyright (c) Steve Scherf et al.
# Submitted via: CDex 1.50beta10
# Normalized: r0:TRMNUM
#
DISCID=a711070c
DTITLE=Stevie Ray Vaughan - 10-20-83 Ripley's Music Hall-Philadelphia, PA
DYEAR=1900
DGENRE=Blues
TTITLE0=Testify
TTITLE1=So Excited
TTITLE2=Voodoo Chile
TTITLE3=Texas Flood
TTITLE4=Love Struck Baby
TTITLE5=Mary Had A Little Lamb
TTITLE6=Tin Pan Alley
TTITLE7=Little Wing - Third Stone From The Sun
TTITLE8=Lenny
TTITLE9=Rude Mood
TTITLE10=Tell Me
TTITLE11=Scuttle Buttin'
EXTD=
EXTT0=
EXTT1=
EXTT2=
EXTT3=
EXTT4=
EXTT5=
EXTT6=
EXTT7=
EXTT8=
EXTT9=
EXTT10=
EXTT11=
PLAYORDER=
